<svg xmlns="http://www.w3.org/2000/svg" version="1.1" viewBox="0 0 1920 1080" width="1920" height="1080">
    <g>
        <polyline fill="transparent" stroke-width="4" points="387,56 -239,56" stroke="#acb1b4" key="0"></polyline>
        <polyline fill="transparent" stroke-width="4" points="0,282 -239,282" stroke="#acb1b4" key="1"></polyline>
        <polyline fill="transparent" stroke-width="4" points="387,395 336,395 336,508 285,508" stroke="#acb1b4" key="2"></polyline>
        <polyline fill="transparent" stroke-width="4" points="774,395 672,395" stroke="#acb1b4" key="3"></polyline>
        <polyline fill="transparent" stroke-width="4" points="1446,395 1497,395 1497,508 1869,508" stroke="#acb1b4" key="4"></polyline>
        <polyline fill="transparent" stroke-width="4" points="1161,395 1059,395" stroke="#acb1b4" key="5"></polyline>
        <polyline fill="transparent" stroke-width="4" points="0,508 -239,508" stroke="#acb1b4" key="6"></polyline>
        <polyline fill="transparent" stroke-width="4" points="387,621 336,621 336,508 285,508" stroke="#acb1b4" key="7"></polyline>
        <polyline fill="transparent" stroke-width="4" points="774,621 672,621" stroke="#acb1b4" key="8"></polyline>
        <polyline fill="transparent" stroke-width="4" points="1446,621 1497,621 1497,508 1869,508" stroke="#acb1b4" key="9"></polyline>
        <polyline fill="transparent" stroke-width="4" points="1161,621 1059,621" stroke="#acb1b4" key="10"></polyline>
        <polyline fill="transparent" stroke-width="4" points="387,734 336,734 336,508 285,508" stroke="#acb1b4" key="11"></polyline>
        <polyline fill="transparent" stroke-width="4" points="387,847 336,847 336,508 285,508" stroke="#acb1b4" key="12"></polyline>
        <polyline fill="transparent" stroke-width="4" points="2563,169 4248,169" stroke="#acb1b4" key="13"></polyline>
    </g>
</svg>