<svg xmlns="http://www.w3.org/2000/svg" version="1.1" viewBox="0 0 1920 1080" width="1920" height="1080">
    <g>
        <polyline fill="transparent" stroke-width="4" points="0,169 -239,169" stroke="#acb1b4" key="0"></polyline>
        <polyline fill="transparent" stroke-width="4" points="387,169 285,169" stroke="#acb1b4" key="1"></polyline>
        <polyline fill="transparent" stroke-width="4" points="774,169 672,169" stroke="#acb1b4" key="2"></polyline>
        <polyline fill="transparent" stroke-width="4" points="1446,169 1497,169 1497,282 1869,282" stroke="#acb1b4" key="3"></polyline>
        <polyline fill="transparent" stroke-width="4" points="1446,169 1497,169 1497,56 1869,56" stroke="#acb1b4" key="4"></polyline>
        <polyline fill="transparent" stroke-width="4" points="1446,169 1869,169" stroke="#acb1b4" key="5"></polyline>
        <polyline fill="transparent" stroke-width="4" points="1161,169 1059,169" stroke="#acb1b4" key="6"></polyline>
        <polyline fill="transparent" stroke-width="4" points="387,395 336,395 336,508 285,508" stroke="#acb1b4" key="7"></polyline>
        <polyline fill="transparent" stroke-width="4" points="1059,395 1110,395 1110,508 1869,508" stroke="#acb1b4" key="8"></polyline>
        <polyline fill="transparent" stroke-width="4" points="774,395 672,395" stroke="#acb1b4" key="9"></polyline>
        <polyline fill="transparent" stroke-width="4" points="0,508 -239,508" stroke="#acb1b4" key="10"></polyline>
        <polyline fill="transparent" stroke-width="4" points="0,508 -239,508" stroke="#acb1b4" key="11"></polyline>
        <polyline fill="transparent" stroke-width="4" points="1161,508 1110,508 1110,395 1059,395" stroke="#acb1b4" key="12"></polyline>
        <polyline fill="transparent" stroke-width="4" points="1161,508 1110,508 1110,621 1059,621" stroke="#acb1b4" key="13"></polyline>
        <polyline fill="transparent" stroke-width="4" points="387,621 336,621 336,508 285,508" stroke="#acb1b4" key="14"></polyline>
        <polyline fill="transparent" stroke-width="4" points="1059,621 1110,621 1110,508 1869,508" stroke="#acb1b4" key="15"></polyline>
        <polyline fill="transparent" stroke-width="4" points="774,621 672,621" stroke="#acb1b4" key="16"></polyline>
        <polyline fill="transparent" stroke-width="4" points="774,734 723,734 723,847 672,847" stroke="#acb1b4" key="17"></polyline>
        <polyline fill="transparent" stroke-width="4" points="1161,734 1110,734 1110,847 1059,847" stroke="#acb1b4" key="18"></polyline>
        <polyline fill="transparent" stroke-width="4" points="387,847 336,847 336,508 285,508" stroke="#acb1b4" key="19"></polyline>
        <polyline fill="transparent" stroke-width="4" points="774,847 672,847" stroke="#acb1b4" key="20"></polyline>
    </g>
</svg>